<svg id="Layer_1" data-name="Layer 1" xmlns="http://www.w3.org/2000/svg" viewBox="0 0 420.14 353.64"><defs><style>.cls-1,.cls-2{fill:none;stroke-width:25px;}.cls-1{stroke:#555;}.cls-2,.cls-4{stroke:#484848;}.cls-3,.cls-4{fill:#484848;}.cls-4{stroke-width:3.5px;}</style></defs><title>Test</title><path class="cls-1" d="M105.67,384.91" transform="translate(-39.93 -39.93)"/><path class="cls-1" d="M250,447.57" transform="translate(-39.93 -39.93)"/><path class="cls-1" d="M394.23,385" transform="translate(-39.93 -39.93)"/><path class="cls-2" d="M105.67,384.91A196.88,196.88,0,0,1,52.43,250C52.43,140.89,140.89,52.43,250,52.43S447.57,140.89,447.57,250a196.88,196.88,0,0,1-53.34,135" transform="translate(-39.93 -39.93)"/><rect class="cls-3" x="95.7" y="137.89" width="16.38" height="59.85" transform="translate(-133.31 133.95) rotate(-60)"/><rect class="cls-3" x="155.84" y="76.16" width="16.38" height="59.85" transform="translate(-71 56.3) rotate(-30)"/><rect class="cls-3" x="199.43" y="12.52" width="16.38" height="59.85"/><rect class="cls-3" x="347.78" y="202.63" width="59.85" height="16.38"/><rect class="cls-3" x="12.51" y="202.63" width="59.85" height="16.38"/><rect class="cls-3" x="74.6" y="325.14" width="59.85" height="16.38" transform="translate(-192.59 56.99) rotate(-30)"/><rect class="cls-3" x="362.51" y="157.49" width="59.85" height="16.38" transform="translate(-70.2 178.48) rotate(-30)"/><rect class="cls-3" x="302.38" y="95.77" width="59.85" height="16.38" transform="translate(36.19 299.83) rotate(-60)"/><rect class="cls-3" x="383.6" y="301.26" width="16.38" height="59.85" transform="translate(-130.85 464.97) rotate(-60)"/><circle class="cls-3" cx="209.88" cy="211.1" r="15.62"/><path class="cls-3" d="M257.67,254.12l96.69-136.19L244.14,243.59c-9,8.06,6.15,19.87,13.54,10.53Z" transform="translate(-39.93 -39.93)"/><rect class="cls-4" x="151.52" y="307.64" width="116.81" height="18.37" rx="0.03" ry="0.03"/></svg>