<svg id="Layer_1" data-name="Layer 1" xmlns="http://www.w3.org/2000/svg" viewBox="0 0 538.23 154.49"><defs><style>.cls-1{fill:#ba0101;}</style></defs><title>arrow-310635</title><path class="cls-1" d="M515.27,248c0-5.3-102.88-8.52-229.56-7.19s-229.46,6.71-229.43,12,102.88,8.52,229.56,7.19,229.46-6.71,229.43-12Z" transform="translate(-56.29 -173.82)"/><path class="cls-1" d="M593.11,247.93c-.42-1.85-6.26-2.79-16.1-2.3a189.61,189.61,0,0,0-39.44,6.84A242,242,0,0,0,496.45,268a224.72,224.72,0,0,0-32,19A172.28,172.28,0,0,0,442,305.91a82.33,82.33,0,0,0-12,14.85c-2.27,3.85-2.82,6.41-1.59,7.25s4.14-.09,8.4-2.34,9.89-5.79,16.76-10.11,15-9.39,24.17-14.73,19.48-10.92,30.6-16.33c12.93-6.29,25.55-11.66,37-16.11,14-5.44,26.12-9.57,34.7-12.85s13.58-5.77,13.16-7.62Z" transform="translate(-56.29 -173.82)"/><path class="cls-1" d="M594.5,248.45c.36-1.86-4.73-4.18-13.42-7.15s-21-6.68-35.13-11.63c-11.58-4.05-24.38-9-37.52-14.81-11.29-5-21.77-10.24-31.15-15.25s-17.66-9.8-24.67-13.87-12.76-7.42-17.1-9.51-7.27-2.93-8.47-2-.57,3.42,1.84,7.19a82.46,82.46,0,0,0,12.55,14.42,172.17,172.17,0,0,0,23.09,18.14,224.67,224.67,0,0,0,32.68,17.83,241.8,241.8,0,0,0,41.65,14.11,189.61,189.61,0,0,0,39.66,5.45c9.85.14,15.65-1,16-2.86Z" transform="translate(-56.29 -173.82)"/></svg>