<svg id="Layer_1" data-name="Layer 1" xmlns="http://www.w3.org/2000/svg" xmlns:xlink="http://www.w3.org/1999/xlink" viewBox="0 0 178.02 178.02"><defs><style>.cls-1{fill:url(#radial-gradient);}.cls-2{fill:url(#linear-gradient);}.cls-3{fill:url(#linear-gradient-2);}.cls-4{fill:url(#linear-gradient-3);}.cls-5{fill:url(#linear-gradient-4);}.cls-6{fill:url(#linear-gradient-5);}.cls-7{fill:url(#linear-gradient-6);}.cls-8{fill:url(#linear-gradient-7);}.cls-9{fill:url(#linear-gradient-8);}.cls-10{fill:url(#linear-gradient-9);}.cls-11{fill:url(#linear-gradient-10);}.cls-12{fill:url(#linear-gradient-11);}.cls-13{fill:url(#linear-gradient-12);}.cls-14{fill:url(#linear-gradient-13);}.cls-15{fill:url(#linear-gradient-14);}.cls-16{fill:url(#linear-gradient-15);}.cls-17{fill:url(#linear-gradient-16);}.cls-18{fill:url(#linear-gradient-17);}.cls-19{fill:url(#linear-gradient-18);}.cls-20{fill:url(#linear-gradient-19);}.cls-21{fill:url(#linear-gradient-20);}.cls-22{fill:url(#linear-gradient-21);}.cls-23{fill:url(#linear-gradient-22);}.cls-24{fill:url(#linear-gradient-23);}.cls-25{fill:url(#linear-gradient-24);}.cls-26{fill:url(#linear-gradient-25);}.cls-27{fill:url(#linear-gradient-26);}.cls-28{fill:url(#linear-gradient-27);}.cls-29{fill:url(#linear-gradient-28);}.cls-30{fill:url(#linear-gradient-29);}.cls-31{fill:url(#linear-gradient-30);}.cls-32{fill:url(#linear-gradient-31);}.cls-33{fill:url(#linear-gradient-32);}.cls-34{fill:url(#linear-gradient-33);}.cls-35{fill:url(#linear-gradient-34);}.cls-36{fill:url(#linear-gradient-35);}.cls-37{fill:url(#linear-gradient-36);}.cls-38{fill:url(#linear-gradient-37);}.cls-39{fill:url(#linear-gradient-38);}.cls-40{fill:url(#linear-gradient-39);}.cls-41{fill:url(#linear-gradient-40);}.cls-42{fill:url(#linear-gradient-41);}.cls-43{fill:url(#linear-gradient-42);}.cls-44{fill:url(#linear-gradient-43);}.cls-45{fill:url(#linear-gradient-44);}.cls-46{fill:url(#linear-gradient-45);}.cls-47{fill:url(#linear-gradient-46);}.cls-48{fill:url(#linear-gradient-47);}.cls-49{fill:url(#linear-gradient-48);}.cls-50{fill:url(#linear-gradient-49);}.cls-51{fill:url(#linear-gradient-50);}.cls-52{fill:url(#linear-gradient-51);}.cls-53{fill:url(#linear-gradient-52);}.cls-54{fill:url(#linear-gradient-53);}.cls-55{fill:url(#linear-gradient-54);}.cls-56{fill:url(#linear-gradient-55);}.cls-57{fill:url(#linear-gradient-56);}.cls-58{fill:url(#linear-gradient-57);}.cls-59{fill:url(#linear-gradient-58);}.cls-60{fill:url(#linear-gradient-59);}.cls-61{fill:url(#linear-gradient-60);}.cls-62{fill:url(#linear-gradient-61);}.cls-63{fill:url(#linear-gradient-62);}.cls-64{fill:url(#linear-gradient-63);}.cls-65{fill:url(#linear-gradient-64);}.cls-66{fill:url(#linear-gradient-65);}.cls-67{fill:url(#linear-gradient-66);}.cls-68{fill:url(#linear-gradient-67);}.cls-69{fill:url(#linear-gradient-68);}.cls-70{fill:url(#linear-gradient-69);}.cls-71{fill:url(#linear-gradient-70);}.cls-72{fill:url(#linear-gradient-71);}.cls-73{fill:url(#linear-gradient-72);}.cls-74{fill:url(#radial-gradient-2);}.cls-75{fill:#7a7a7a;}.cls-76{fill:#7c7c7c;}.cls-77{fill:#757575;}.cls-78{fill:#6e6e6e;}.cls-79{fill:#858585;}.cls-80{stroke:#dedede;stroke-miterlimit:10;stroke-width:0.2px;fill:url(#linear-gradient-73);}.cls-81{fill:#f04f38;}</style><radialGradient id="radial-gradient" cx="141.73" cy="141.73" r="89.01" gradientUnits="userSpaceOnUse"><stop offset="0" stop-color="#4c4c4c"/><stop offset="0.92" stop-color="#626262"/><stop offset="0.95" stop-color="#5a5a5a"/><stop offset="0.98" stop-color="#454545"/><stop offset="1" stop-color="#363636"/></radialGradient><linearGradient id="linear-gradient" x1="141.73" y1="57.29" x2="141.73" y2="52.74" gradientUnits="userSpaceOnUse"><stop offset="0" stop-color="#4c4c4c"/><stop offset="0.19" stop-color="#626262"/><stop offset="0.4" stop-color="#5a5a5a"/><stop offset="0.72" stop-color="#454545"/><stop offset="1" stop-color="#2d2d2d"/></linearGradient><linearGradient id="linear-gradient-2" x1="141.31" y1="57.57" x2="141.31" y2="53.02" gradientTransform="translate(-11.42 12.58) rotate(-5)" xlink:href="#linear-gradient"/><linearGradient id="linear-gradient-3" x1="142.25" y1="57.04" x2="142.25" y2="52.49" gradientTransform="translate(-22.92 27.09) rotate(-10)" xlink:href="#linear-gradient"/><linearGradient id="linear-gradient-4" x1="142.09" y1="57.44" x2="142.09" y2="52.89" gradientTransform="translate(-32.23 41.46) rotate(-15)" xlink:href="#linear-gradient"/><linearGradient id="linear-gradient-5" x1="141.93" y1="57.12" x2="141.93" y2="52.57" gradientTransform="matrix(0.94, -0.34, 0.34, 0.94, -40.05, 57.25)" xlink:href="#linear-gradient"/><linearGradient id="linear-gradient-6" x1="141.99" y1="57.31" x2="141.99" y2="52.76" gradientTransform="translate(-46.86 73.27) rotate(-25)" xlink:href="#linear-gradient"/><linearGradient id="linear-gradient-7" x1="141.84" y1="57.58" x2="141.84" y2="53.03" gradientTransform="translate(-52.11 89.66) rotate(-30)" xlink:href="#linear-gradient"/><linearGradient id="linear-gradient-8" x1="141.4" y1="56.81" x2="141.4" y2="52.26" gradientTransform="matrix(0.82, -0.57, 0.57, 0.82, -55.12, 107.13)" xlink:href="#linear-gradient"/><linearGradient id="linear-gradient-9" x1="141.68" y1="57.83" x2="141.68" y2="53.28" gradientTransform="matrix(0.77, -0.64, 0.64, 0.77, -58.24, 123.82)" xlink:href="#linear-gradient"/><linearGradient id="linear-gradient-10" x1="141.86" y1="57.38" x2="141.86" y2="52.84" gradientTransform="translate(-58.86 141.75) rotate(-45)" xlink:href="#linear-gradient"/><linearGradient id="linear-gradient-11" x1="142.31" y1="57.21" x2="142.31" y2="52.66" gradientTransform="matrix(0.64, -0.77, 0.77, 0.64, -58.25, 159.68)" xlink:href="#linear-gradient"/><linearGradient id="linear-gradient-12" x1="141.29" y1="56.96" x2="141.29" y2="52.41" gradientTransform="matrix(0.57, -0.82, 0.82, 0.57, -55.14, 176.37)" xlink:href="#linear-gradient"/><linearGradient id="linear-gradient-13" x1="142.07" y1="57.4" x2="142.07" y2="52.85" gradientTransform="translate(-52.14 193.85) rotate(-60)" xlink:href="#linear-gradient"/><linearGradient id="linear-gradient-14" x1="141.81" y1="57.55" x2="141.81" y2="53.01" gradientTransform="translate(-46.89 210.24) rotate(-65)" xlink:href="#linear-gradient"/><linearGradient id="linear-gradient-15" x1="141.62" y1="57.51" x2="141.62" y2="52.96" gradientTransform="matrix(0.34, -0.94, 0.94, 0.34, -40.09, 226.26)" xlink:href="#linear-gradient"/><linearGradient id="linear-gradient-16" x1="141.95" y1="57.67" x2="141.95" y2="53.13" gradientTransform="translate(-32.28 242.05) rotate(-75)" xlink:href="#linear-gradient"/><linearGradient id="linear-gradient-17" x1="141.56" y1="57.85" x2="141.56" y2="53.3" gradientTransform="translate(-22.97 256.43) rotate(-80)" xlink:href="#linear-gradient"/><linearGradient id="linear-gradient-18" x1="142.08" y1="56.92" x2="142.08" y2="52.37" gradientTransform="translate(-11.48 270.95) rotate(-85)" xlink:href="#linear-gradient"/><linearGradient id="linear-gradient-19" x1="141.8" y1="57.35" x2="141.8" y2="52.8" gradientTransform="translate(-0.06 283.53) rotate(-90)" xlink:href="#linear-gradient"/><linearGradient id="linear-gradient-20" x1="141.37" y1="57.64" x2="141.37" y2="53.09" gradientTransform="translate(12.51 294.95) rotate(-95)" xlink:href="#linear-gradient"/><linearGradient id="linear-gradient-21" x1="142.3" y1="57.12" x2="142.3" y2="52.57" gradientTransform="translate(27.03 306.45) rotate(-100)" xlink:href="#linear-gradient"/><linearGradient id="linear-gradient-22" x1="142.14" y1="57.52" x2="142.14" y2="52.97" gradientTransform="translate(41.4 315.76) rotate(-105)" xlink:href="#linear-gradient"/><linearGradient id="linear-gradient-23" x1="141.97" y1="57.2" x2="141.97" y2="52.65" gradientTransform="matrix(-0.34, -0.94, 0.94, -0.34, 57.18, 323.58)" xlink:href="#linear-gradient"/><linearGradient id="linear-gradient-24" x1="142.02" y1="57.39" x2="142.02" y2="52.84" gradientTransform="translate(73.21 330.39) rotate(-115)" xlink:href="#linear-gradient"/><linearGradient id="linear-gradient-25" x1="141.87" y1="57.67" x2="141.87" y2="53.12" gradientTransform="translate(89.6 335.64) rotate(-120)" xlink:href="#linear-gradient"/><linearGradient id="linear-gradient-26" x1="141.42" y1="56.89" x2="141.42" y2="52.34" gradientTransform="matrix(-0.57, -0.82, 0.82, -0.57, 107.07, 338.65)" xlink:href="#linear-gradient"/><linearGradient id="linear-gradient-27" x1="141.69" y1="57.92" x2="141.69" y2="53.37" gradientTransform="matrix(-0.64, -0.77, 0.77, -0.64, 123.76, 341.77)" xlink:href="#linear-gradient"/><linearGradient id="linear-gradient-28" x1="141.86" y1="57.47" x2="141.86" y2="52.92" gradientTransform="translate(141.69 342.39) rotate(-135)" xlink:href="#linear-gradient"/><linearGradient id="linear-gradient-29" x1="142.3" y1="57.3" x2="142.3" y2="52.75" gradientTransform="matrix(-0.77, -0.64, 0.64, -0.77, 159.62, 341.78)" xlink:href="#linear-gradient"/><linearGradient id="linear-gradient-30" x1="141.27" y1="57.04" x2="141.27" y2="52.5" gradientTransform="matrix(-0.82, -0.57, 0.57, -0.82, 176.31, 338.67)" xlink:href="#linear-gradient"/><linearGradient id="linear-gradient-31" x1="142.05" y1="57.48" x2="142.05" y2="52.93" gradientTransform="translate(193.79 335.67) rotate(-150)" xlink:href="#linear-gradient"/><linearGradient id="linear-gradient-32" x1="141.78" y1="57.64" x2="141.78" y2="53.09" gradientTransform="translate(210.18 330.41) rotate(-155)" xlink:href="#linear-gradient"/><linearGradient id="linear-gradient-33" x1="141.58" y1="57.59" x2="141.58" y2="53.04" gradientTransform="matrix(-0.94, -0.34, 0.34, -0.94, 226.2, 323.62)" xlink:href="#linear-gradient"/><linearGradient id="linear-gradient-34" x1="141.9" y1="57.75" x2="141.9" y2="53.2" gradientTransform="translate(241.99 315.81) rotate(-165)" xlink:href="#linear-gradient"/><linearGradient id="linear-gradient-35" x1="141.51" y1="57.93" x2="141.51" y2="53.37" gradientTransform="translate(256.37 306.5) rotate(-170)" xlink:href="#linear-gradient"/><linearGradient id="linear-gradient-36" x1="142.02" y1="56.99" x2="142.02" y2="52.44" gradientTransform="translate(270.89 295.01) rotate(-175)" xlink:href="#linear-gradient"/><linearGradient id="linear-gradient-37" x1="141.74" y1="57.42" x2="141.74" y2="52.87" gradientTransform="translate(283.47 283.59) rotate(180)" xlink:href="#linear-gradient"/><linearGradient id="linear-gradient-38" x1="141.3" y1="57.7" x2="141.3" y2="53.15" gradientTransform="translate(294.89 271.01) rotate(175)" xlink:href="#linear-gradient"/><linearGradient id="linear-gradient-39" x1="142.23" y1="57.17" x2="142.23" y2="52.62" gradientTransform="translate(306.39 256.5) rotate(170)" xlink:href="#linear-gradient"/><linearGradient id="linear-gradient-40" x1="142.06" y1="57.56" x2="142.06" y2="53.01" gradientTransform="translate(315.7 242.13) rotate(165)" xlink:href="#linear-gradient"/><linearGradient id="linear-gradient-41" x1="141.89" y1="57.24" x2="141.89" y2="52.69" gradientTransform="matrix(-0.94, 0.34, -0.34, -0.94, 323.52, 226.34)" xlink:href="#linear-gradient"/><linearGradient id="linear-gradient-42" x1="141.94" y1="57.42" x2="141.94" y2="52.87" gradientTransform="translate(330.32 210.32) rotate(155)" xlink:href="#linear-gradient"/><linearGradient id="linear-gradient-43" x1="141.78" y1="57.69" x2="141.78" y2="53.14" gradientTransform="translate(335.58 193.93) rotate(150)" xlink:href="#linear-gradient"/><linearGradient id="linear-gradient-44" x1="141.33" y1="56.91" x2="141.33" y2="52.36" gradientTransform="matrix(-0.82, 0.57, -0.57, -0.82, 338.59, 176.46)" xlink:href="#linear-gradient"/><linearGradient id="linear-gradient-45" x1="141.6" y1="57.93" x2="141.6" y2="53.37" gradientTransform="matrix(-0.77, 0.64, -0.64, -0.77, 341.71, 159.77)" xlink:href="#linear-gradient"/><linearGradient id="linear-gradient-46" x1="141.77" y1="57.48" x2="141.77" y2="52.93" gradientTransform="translate(342.33 141.84) rotate(135)" xlink:href="#linear-gradient"/><linearGradient id="linear-gradient-47" x1="142.21" y1="57.3" x2="142.21" y2="52.74" gradientTransform="matrix(-0.64, 0.77, -0.77, -0.64, 341.72, 123.91)" xlink:href="#linear-gradient"/><linearGradient id="linear-gradient-48" x1="141.18" y1="57.03" x2="141.18" y2="52.48" gradientTransform="matrix(-0.57, 0.82, -0.82, -0.57, 338.61, 107.22)" xlink:href="#linear-gradient"/><linearGradient id="linear-gradient-49" x1="141.96" y1="57.46" x2="141.96" y2="52.91" gradientTransform="translate(335.6 89.74) rotate(120)" xlink:href="#linear-gradient"/><linearGradient id="linear-gradient-50" x1="141.69" y1="57.61" x2="141.69" y2="53.06" gradientTransform="translate(330.35 73.35) rotate(115)" xlink:href="#linear-gradient"/><linearGradient id="linear-gradient-51" x1="141.5" y1="57.55" x2="141.5" y2="53" gradientTransform="matrix(-0.34, 0.94, -0.94, -0.34, 323.56, 57.33)" xlink:href="#linear-gradient"/><linearGradient id="linear-gradient-52" x1="141.82" y1="57.71" x2="141.82" y2="53.16" gradientTransform="translate(315.74 41.54) rotate(105)" xlink:href="#linear-gradient"/><linearGradient id="linear-gradient-53" x1="141.43" y1="57.88" x2="141.43" y2="53.32" gradientTransform="translate(306.44 27.16) rotate(100)" xlink:href="#linear-gradient"/><linearGradient id="linear-gradient-54" x1="141.95" y1="56.93" x2="141.95" y2="52.38" gradientTransform="translate(294.95 12.65) rotate(95)" xlink:href="#linear-gradient"/><linearGradient id="linear-gradient-55" x1="141.67" y1="57.36" x2="141.67" y2="52.81" gradientTransform="translate(283.53 0.06) rotate(90)" xlink:href="#linear-gradient"/><linearGradient id="linear-gradient-56" x1="141.24" y1="57.64" x2="141.24" y2="53.09" gradientTransform="translate(270.96 -11.36) rotate(85)" xlink:href="#linear-gradient"/><linearGradient id="linear-gradient-57" x1="142.18" y1="57.1" x2="142.18" y2="52.55" gradientTransform="translate(256.44 -22.86) rotate(80)" xlink:href="#linear-gradient"/><linearGradient id="linear-gradient-58" x1="142.01" y1="57.49" x2="142.01" y2="52.94" gradientTransform="translate(242.08 -32.17) rotate(75)" xlink:href="#linear-gradient"/><linearGradient id="linear-gradient-59" x1="141.85" y1="57.17" x2="141.85" y2="52.61" gradientTransform="matrix(0.34, 0.94, -0.94, 0.34, 226.29, -39.99)" xlink:href="#linear-gradient"/><linearGradient id="linear-gradient-60" x1="141.9" y1="57.35" x2="141.9" y2="52.8" gradientTransform="translate(210.27 -46.8) rotate(65)" xlink:href="#linear-gradient"/><linearGradient id="linear-gradient-61" x1="141.76" y1="57.61" x2="141.76" y2="53.06" gradientTransform="translate(193.88 -52.06) rotate(60)" xlink:href="#linear-gradient"/><linearGradient id="linear-gradient-62" x1="141.31" y1="56.83" x2="141.31" y2="52.28" gradientTransform="matrix(0.57, 0.82, -0.82, 0.57, 176.4, -55.07)" xlink:href="#linear-gradient"/><linearGradient id="linear-gradient-63" x1="141.59" y1="57.84" x2="141.59" y2="53.29" gradientTransform="matrix(0.64, 0.77, -0.77, 0.64, 159.71, -58.19)" xlink:href="#linear-gradient"/><linearGradient id="linear-gradient-64" x1="141.77" y1="57.4" x2="141.77" y2="52.84" gradientTransform="translate(141.78 -58.81) rotate(45)" xlink:href="#linear-gradient"/><linearGradient id="linear-gradient-65" x1="142.21" y1="57.21" x2="142.21" y2="52.66" gradientTransform="matrix(0.77, 0.64, -0.64, 0.77, 123.85, -58.2)" xlink:href="#linear-gradient"/><linearGradient id="linear-gradient-66" x1="141.2" y1="56.95" x2="141.2" y2="52.4" gradientTransform="matrix(0.82, 0.57, -0.57, 0.82, 107.16, -55.08)" xlink:href="#linear-gradient"/><linearGradient id="linear-gradient-67" x1="141.98" y1="57.38" x2="141.98" y2="52.83" gradientTransform="translate(89.68 -52.08) rotate(30)" xlink:href="#linear-gradient"/><linearGradient id="linear-gradient-68" x1="141.72" y1="57.53" x2="141.72" y2="52.98" gradientTransform="translate(73.29 -46.83) rotate(25)" xlink:href="#linear-gradient"/><linearGradient id="linear-gradient-69" x1="141.54" y1="57.48" x2="141.54" y2="52.93" gradientTransform="matrix(0.94, 0.34, -0.34, 0.94, 57.27, -40.04)" xlink:href="#linear-gradient"/><linearGradient id="linear-gradient-70" x1="141.87" y1="57.64" x2="141.87" y2="53.09" gradientTransform="translate(41.47 -32.22) rotate(15)" xlink:href="#linear-gradient"/><linearGradient id="linear-gradient-71" x1="141.48" y1="57.81" x2="141.48" y2="53.26" gradientTransform="translate(27.1 -22.92) rotate(10)" xlink:href="#linear-gradient"/><linearGradient id="linear-gradient-72" x1="142.01" y1="56.87" x2="142.01" y2="52.32" gradientTransform="translate(12.58 -11.42) rotate(5)" xlink:href="#linear-gradient"/><radialGradient id="radial-gradient-2" cx="141.73" cy="141.73" r="89.01" gradientUnits="userSpaceOnUse"><stop offset="0.7" stop-color="#343434"/><stop offset="0.79" stop-color="#515151"/><stop offset="0.9" stop-color="#5b5b5b" stop-opacity="0"/></radialGradient><linearGradient id="linear-gradient-73" x1="89.01" y1="98.15" x2="89.01" y2="79.86" gradientUnits="userSpaceOnUse"><stop offset="0" stop-color="#f0f0f0"/><stop offset="1" stop-color="#fbfbfb"/></linearGradient></defs><title>tire-1135376</title><path class="cls-1" d="M141.73,52.72a89,89,0,1,0,89,89A89,89,0,0,0,141.73,52.72Zm0,153a64,64,0,1,1,64-64A64,64,0,0,1,141.73,205.68Z" transform="translate(-52.72 -52.72)"/><path class="cls-2" d="M142.41,57.29V52.76l-.68,0-.68,0v4.53Z" transform="translate(-52.72 -52.72)"/><path class="cls-3" d="M135.05,57.55,134.66,53l-.68,0-.68.08.4,4.51Z" transform="translate(-52.72 -52.72)"/><path class="cls-4" d="M127.74,58.45,127,54l-.67.1-.67.13.79,4.46Z" transform="translate(-52.72 -52.72)"/><path class="cls-5" d="M120.53,60l-1.17-4.38-.66.16L118,56l1.17,4.38Z" transform="translate(-52.72 -52.72)"/><path class="cls-6" d="M113.49,62.15l-1.55-4.26-.65.22-.63.25,1.55,4.26Z" transform="translate(-52.72 -52.72)"/><path class="cls-7" d="M106.66,64.91l-1.91-4.11-.62.27-.61.3,1.92,4.11Z" transform="translate(-52.72 -52.72)"/><path class="cls-8" d="M100.1,68.26l-2.26-3.92-.6.33-.58.35,2.27,3.92Z" transform="translate(-52.72 -52.72)"/><path class="cls-9" d="M93.86,72.17l-2.6-3.71-.57.38-.55.4,2.6,3.71Z" transform="translate(-52.72 -52.72)"/><path class="cls-10" d="M88,76.61l-2.91-3.47-.53.42L84,74l2.91,3.47Z" transform="translate(-52.72 -52.72)"/><path class="cls-11" d="M82.5,81.54l-3.2-3.2-.49.47-.47.49,3.2,3.2Z" transform="translate(-52.72 -52.72)"/><path class="cls-12" d="M77.48,86.93,74,84c-.15.18-.31.34-.45.51s-.28.36-.42.53L76.61,88Z" transform="translate(-52.72 -52.72)"/><path class="cls-13" d="M73,92.74l-3.71-2.6c-.13.19-.28.36-.41.55s-.25.38-.38.57l3.71,2.6Z" transform="translate(-52.72 -52.72)"/><path class="cls-14" d="M68.94,98.92,65,96.65c-.12.2-.25.38-.36.58s-.21.4-.33.6l3.92,2.26Z" transform="translate(-52.72 -52.72)"/><path class="cls-15" d="M65.49,105.43l-4.1-1.92c-.1.21-.21.4-.3.61s-.18.42-.27.62l4.11,1.91Z" transform="translate(-52.72 -52.72)"/><path class="cls-16" d="M62.61,112.21l-4.26-1.55c-.08.21-.17.42-.25.63s-.14.43-.22.64l4.26,1.55Z" transform="translate(-52.72 -52.72)"/><path class="cls-17" d="M60.34,119.22,56,118c-.06.22-.14.44-.19.65s-.1.44-.16.66L60,120.53Z" transform="translate(-52.72 -52.72)"/><path class="cls-18" d="M58.69,126.4l-4.46-.79c0,.22-.1.45-.14.67s-.06.45-.1.67l4.46.79Z" transform="translate(-52.72 -52.72)"/><path class="cls-19" d="M57.67,133.69l-4.51-.4c0,.23-.06.45-.08.68s0,.45,0,.68l4.51.39Z" transform="translate(-52.72 -52.72)"/><path class="cls-20" d="M57.29,141.05H52.76c0,.23,0,.46,0,.68s0,.45,0,.68h4.53Z" transform="translate(-52.72 -52.72)"/><path class="cls-21" d="M57.55,148.41l-4.51.39c0,.23,0,.46,0,.68s.06.45.08.68l4.51-.4Z" transform="translate(-52.72 -52.72)"/><path class="cls-22" d="M58.45,155.72l-4.46.79c0,.23.06.45.1.67s.1.44.13.67l4.46-.79Z" transform="translate(-52.72 -52.72)"/><path class="cls-23" d="M60,162.93l-4.38,1.17c.06.22.1.45.16.66s.14.43.19.65l4.38-1.17Z" transform="translate(-52.72 -52.72)"/><path class="cls-24" d="M62.15,170l-4.26,1.55c.08.22.13.44.21.65s.17.42.25.63l4.26-1.55Z" transform="translate(-52.72 -52.72)"/><path class="cls-25" d="M64.91,176.8l-4.1,1.92c.09.21.17.42.27.62s.21.4.3.61L65.49,178Z" transform="translate(-52.72 -52.72)"/><path class="cls-26" d="M68.26,183.36l-3.92,2.27c.11.2.21.4.32.6s.24.38.36.58l3.92-2.26Z" transform="translate(-52.72 -52.72)"/><path class="cls-27" d="M72.17,189.61l-3.71,2.6c.13.19.24.38.37.57s.28.36.4.55l3.71-2.6Z" transform="translate(-52.72 -52.72)"/><path class="cls-28" d="M76.61,195.49l-3.47,2.91c.15.18.28.36.42.53s.31.33.45.51l3.47-2.91Z" transform="translate(-52.72 -52.72)"/><path class="cls-29" d="M81.54,201l-3.2,3.21c.16.16.31.34.47.49s.34.31.49.47l3.2-3.2Z" transform="translate(-52.72 -52.72)"/><path class="cls-30" d="M86.93,206,84,209.45l.51.45c.17.15.36.28.53.42L88,206.86Z" transform="translate(-52.72 -52.72)"/><path class="cls-31" d="M92.74,210.51l-2.6,3.71.54.41c.18.13.38.24.57.38l2.6-3.71Z" transform="translate(-52.72 -52.72)"/><path class="cls-32" d="M98.92,214.52l-2.26,3.93.58.36.6.33,2.26-3.92Z" transform="translate(-52.72 -52.72)"/><path class="cls-33" d="M105.43,218l-1.91,4.11.61.3.63.27,1.91-4.1Z" transform="translate(-52.72 -52.72)"/><path class="cls-34" d="M112.21,220.85l-1.55,4.26.63.25c.21.08.44.14.65.22l1.55-4.25Z" transform="translate(-52.72 -52.72)"/><path class="cls-35" d="M119.22,223.12,118,227.5l.65.19c.22.06.45.1.66.16l1.17-4.37Z" transform="translate(-52.72 -52.72)"/><path class="cls-36" d="M126.4,224.77l-.79,4.47c.23,0,.45.1.67.13s.45.06.68.1l.79-4.46Z" transform="translate(-52.72 -52.72)"/><path class="cls-37" d="M133.69,225.79l-.39,4.52.68.08c.22,0,.46,0,.68,0l.39-4.51Z" transform="translate(-52.72 -52.72)"/><path class="cls-38" d="M141.05,226.17v4.54l.68,0c.23,0,.45,0,.68,0v-4.53Z" transform="translate(-52.72 -52.72)"/><path class="cls-39" d="M148.41,225.91l.4,4.52.68,0c.22,0,.45-.06.68-.08l-.39-4.51Z" transform="translate(-52.72 -52.72)"/><path class="cls-40" d="M155.72,225l.79,4.46.67-.1c.22,0,.44-.1.67-.14l-.79-4.46Z" transform="translate(-52.72 -52.72)"/><path class="cls-41" d="M162.93,223.47l1.18,4.38.66-.16c.22-.05.43-.14.65-.2l-1.17-4.37Z" transform="translate(-52.72 -52.72)"/><path class="cls-42" d="M170,221.31l1.55,4.26.65-.21c.21-.07.42-.18.63-.25l-1.55-4.25Z" transform="translate(-52.72 -52.72)"/><path class="cls-43" d="M176.8,218.55l1.92,4.11.62-.27c.21-.09.4-.21.61-.31L178,218Z" transform="translate(-52.72 -52.72)"/><path class="cls-44" d="M183.36,215.2l2.27,3.92.6-.32c.2-.11.38-.25.58-.36l-2.26-3.92Z" transform="translate(-52.72 -52.72)"/><path class="cls-45" d="M189.61,211.29l2.6,3.71.57-.37c.19-.13.36-.28.55-.41l-2.6-3.71Z" transform="translate(-52.72 -52.72)"/><path class="cls-46" d="M195.49,206.86l2.92,3.47c.17-.15.36-.28.53-.42s.33-.31.51-.46L196.53,206Z" transform="translate(-52.72 -52.72)"/><path class="cls-47" d="M201,201.93l3.21,3.2c.16-.17.34-.31.49-.47s.31-.34.47-.5l-3.2-3.2Z" transform="translate(-52.72 -52.72)"/><path class="cls-48" d="M206,196.53l3.48,2.91c.15-.18.31-.34.45-.51s.28-.36.42-.54l-3.47-2.91Z" transform="translate(-52.72 -52.72)"/><path class="cls-49" d="M210.51,190.73l3.72,2.6c.13-.19.28-.36.4-.54s.24-.39.38-.57l-3.71-2.6Z" transform="translate(-52.72 -52.72)"/><path class="cls-50" d="M214.52,184.54l3.93,2.26c.11-.2.24-.38.35-.58s.21-.41.33-.6l-3.92-2.26Z" transform="translate(-52.72 -52.72)"/><path class="cls-51" d="M218,178l4.11,1.91c.1-.21.21-.41.31-.61s.17-.42.27-.62l-4.1-1.91Z" transform="translate(-52.72 -52.72)"/><path class="cls-52" d="M220.85,171.25l4.26,1.55c.08-.22.18-.42.25-.63s.14-.44.21-.65L221.32,170Z" transform="translate(-52.72 -52.72)"/><path class="cls-53" d="M223.12,164.25l4.38,1.17c.06-.22.14-.43.19-.65s.1-.44.16-.66l-4.37-1.17Z" transform="translate(-52.72 -52.72)"/><path class="cls-54" d="M224.77,157.07l4.46.78c0-.23.1-.45.14-.67s.06-.45.1-.67l-4.46-.79Z" transform="translate(-52.72 -52.72)"/><path class="cls-55" d="M225.79,149.77l4.51.39c0-.23.06-.45.08-.68s0-.46,0-.68l-4.51-.4Z" transform="translate(-52.72 -52.72)"/><path class="cls-56" d="M226.17,142.41h4.53c0-.23,0-.46,0-.68s0-.46,0-.68h-4.53Z" transform="translate(-52.72 -52.72)"/><path class="cls-57" d="M225.91,135.05l4.52-.4c0-.23,0-.46,0-.68s-.06-.45-.08-.68l-4.51.39Z" transform="translate(-52.72 -52.72)"/><path class="cls-58" d="M225,127.74l4.46-.79c0-.23-.06-.45-.1-.67s-.1-.45-.14-.67l-4.46.79Z" transform="translate(-52.72 -52.72)"/><path class="cls-59" d="M223.47,120.54l4.38-1.18c-.06-.22-.1-.45-.16-.66s-.14-.43-.19-.65l-4.38,1.17Z" transform="translate(-52.72 -52.72)"/><path class="cls-60" d="M221.31,113.49l4.26-1.55c-.08-.22-.14-.44-.22-.65s-.18-.42-.25-.63l-4.25,1.55Z" transform="translate(-52.72 -52.72)"/><path class="cls-61" d="M218.55,106.66l4.11-1.92c-.1-.21-.18-.42-.27-.62s-.21-.4-.3-.61l-4.1,1.91Z" transform="translate(-52.72 -52.72)"/><path class="cls-62" d="M215.2,100.1l3.92-2.27c-.12-.2-.21-.41-.33-.6s-.25-.38-.36-.58l-3.92,2.26Z" transform="translate(-52.72 -52.72)"/><path class="cls-63" d="M211.29,93.86l3.71-2.6c-.13-.19-.24-.39-.38-.57s-.28-.36-.41-.55l-3.71,2.6Z" transform="translate(-52.72 -52.72)"/><path class="cls-64" d="M206.86,88l3.47-2.91c-.15-.17-.28-.36-.42-.53s-.31-.34-.45-.51L206,86.93Z" transform="translate(-52.72 -52.72)"/><path class="cls-65" d="M201.92,82.5l3.2-3.21c-.16-.16-.31-.34-.47-.49s-.34-.31-.49-.47l-3.2,3.2Z" transform="translate(-52.72 -52.72)"/><path class="cls-66" d="M196.53,77.48,199.44,74c-.18-.15-.34-.31-.51-.45s-.36-.28-.53-.42l-2.91,3.47Z" transform="translate(-52.72 -52.72)"/><path class="cls-67" d="M190.72,73l2.6-3.71c-.19-.13-.36-.28-.55-.41s-.39-.24-.57-.37l-2.6,3.71Z" transform="translate(-52.72 -52.72)"/><path class="cls-68" d="M184.54,68.94,186.81,65l-.58-.36c-.19-.12-.41-.21-.6-.32l-2.26,3.92Z" transform="translate(-52.72 -52.72)"/><path class="cls-69" d="M178,65.49,180,61.38l-.61-.3c-.2-.1-.42-.17-.62-.27l-1.91,4.1Z" transform="translate(-52.72 -52.72)"/><path class="cls-70" d="M171.25,62.61l1.55-4.26-.63-.25c-.21-.08-.44-.14-.65-.21L170,62.14Z" transform="translate(-52.72 -52.72)"/><path class="cls-71" d="M164.25,60.34,165.42,56l-.65-.19-.66-.16L162.93,60Z" transform="translate(-52.72 -52.72)"/><path class="cls-72" d="M157.07,58.69l.78-4.46-.67-.14-.67-.1-.79,4.46Z" transform="translate(-52.72 -52.72)"/><path class="cls-73" d="M149.77,57.67l.39-4.52-.67-.08-.68,0-.4,4.51Z" transform="translate(-52.72 -52.72)"/><path class="cls-74" d="M141.73,66.9a74.83,74.83,0,1,0,74.83,74.83A74.83,74.83,0,0,0,141.73,66.9Zm0,138.78a64,64,0,1,1,64-64A64,64,0,0,1,141.73,205.68Z" transform="translate(-52.72 -52.72)"/><path class="cls-75" d="M153.86,115.52c-.3,1.37.76,1.49,4.08,3.91s3.77,3.38,5,2.67c2.3-1.35,12.86-22.28,10.51-24S154.43,112.91,153.86,115.52Zm15.51-11.82c1.84,1.34-4.54,13.2-6.52,15.23a28.29,28.29,0,0,1-3.15-1.91,28.78,28.78,0,0,1-2.79-2.4C158.21,112.09,167.52,102.36,169.36,103.7Z" transform="translate(-52.72 -52.72)"/><path class="cls-75" d="M120.55,122.1c1.21.71,1.65-.26,5-2.67s4.38-2.54,4.08-3.91C129,112.91,112.39,96.4,110,98.11S118.25,120.75,120.55,122.1Zm-6.45-18.4c1.84-1.34,11.15,8.39,12.46,10.91a28.45,28.45,0,0,1-2.79,2.4,28.94,28.94,0,0,1-3.15,1.91C118.64,116.9,112.26,105,114.1,103.7Z" transform="translate(-52.72 -52.72)"/><path class="cls-75" d="M116.52,155.81c1-.93.27-1.65-1-5.56s-1.06-5-2.46-5.09c-2.65-.26-23.5,10.47-22.6,13.23S114.52,157.59,116.52,155.81ZM97,156.26c-.7-2.17,11.43-8,14.23-8.48a28,28,0,0,1,1.43,3.4,28.77,28.77,0,0,1,.85,3.59C111,156,97.73,158.43,97,156.26Z" transform="translate(-52.72 -52.72)"/><path class="cls-75" d="M147.33,170.07c-.56-1.28-1.49-.77-5.6-.77s-5-.52-5.6.77c-1.07,2.44,2.69,25.58,5.6,25.58S148.4,172.51,147.33,170.07Zm-5.6,18.67c-2.28,0-4.09-13.35-3.67-16.15a28,28,0,0,1,3.67-.3,28.67,28.67,0,0,1,3.67.3C145.82,175.39,144,188.74,141.73,188.74Z" transform="translate(-52.72 -52.72)"/><path class="cls-75" d="M170.41,145.16c-1.39.14-1.19,1.18-2.46,5.09s-2.05,4.63-1,5.56c2,1.77,25.16,5.34,26.06,2.58S173.07,144.9,170.41,145.16Zm16,11.1c-.7,2.17-14-.23-16.5-1.5a28.37,28.37,0,0,1,.84-3.59,28.75,28.75,0,0,1,1.43-3.4C175,148.25,187.15,154.09,186.44,156.26Z" transform="translate(-52.72 -52.72)"/><path class="cls-75" d="M141.73,113.61c7.85,0,17.63-12.45,22.06-22.15a1.88,1.88,0,0,0-.92-2.29c-3.67-2.22-10.11-4.27-21.14-4.27S124.26,87,120.59,89.17a1.89,1.89,0,0,0-.92,2.29C124.11,101.16,133.88,113.61,141.73,113.61ZM125.07,95.13a2.57,2.57,0,0,1,1.28-1.48c2-.94,6.47-2.49,15.39-2.49s13.4,1.55,15.39,2.49a2.56,2.56,0,0,1,1.28,1.48c.87,2.55-8.3,15-16.66,15S124.2,97.67,125.07,95.13Z" transform="translate(-52.72 -52.72)"/><path class="cls-75" d="M115,133c2.43-7.47-6.39-20.61-14.25-27.82a1.89,1.89,0,0,0-2.46.16c-3.24,2.8-7.19,8.3-10.59,18.79s-3.44,17.25-2.47,21.42a1.89,1.89,0,0,0,1.9,1.58C97.7,146,112.56,140.51,115,133ZM92.26,143.18a2.56,2.56,0,0,1-1-1.67c-.28-2.18-.37-6.92,2.39-15.4s5.61-12.27,7.12-13.86a2.56,2.56,0,0,1,1.8-.76c2.69,0,11.72,12.54,9.14,20.49S94.41,144.79,92.26,143.18Z" transform="translate(-52.72 -52.72)"/><path class="cls-75" d="M125.2,164.49c-6.35-4.62-21.58-.29-30.86,5a1.88,1.88,0,0,0-.61,2.39c1.66,3.95,5.67,9.4,14.59,15.88s15.35,8.61,19.61,9a1.89,1.89,0,0,0,2.09-1.32C132.14,184.92,131.55,169.1,125.2,164.49Zm2.62,24.75a2.57,2.57,0,0,1-1.9.44c-2.16-.41-6.69-1.79-13.91-7s-9.93-9.13-11-11.06a2.58,2.58,0,0,1-.17-1.95c.8-2.57,15.55-7.27,22.31-2.36S130,187.68,127.82,189.23Z" transform="translate(-52.72 -52.72)"/><path class="cls-75" d="M158.26,164.49c-6.35,4.61-6.94,20.43-4.83,30.88a1.89,1.89,0,0,0,2.09,1.32c4.27-.36,10.69-2.49,19.61-9s12.93-11.93,14.59-15.88a1.88,1.88,0,0,0-.61-2.39C179.84,164.2,164.61,159.87,158.26,164.49Zm24.35,5.16a2.56,2.56,0,0,1-.17,1.95c-1.05,1.93-3.77,5.82-11,11.06s-11.75,6.62-13.91,7a2.57,2.57,0,0,1-1.9-.44c-2.2-1.55-2.11-17,4.65-21.95S181.81,167.07,182.61,169.64Z" transform="translate(-52.72 -52.72)"/><path class="cls-75" d="M168.48,133c2.43,7.47,17.29,12.92,27.88,14.13a1.89,1.89,0,0,0,1.9-1.58c1-4.17.94-10.94-2.47-21.42s-7.35-16-10.59-18.79a1.88,1.88,0,0,0-2.46-.16C174.87,112.43,166.05,125.58,168.48,133Zm12.43-21.56a2.57,2.57,0,0,1,1.8.76c1.51,1.6,4.37,5.38,7.12,13.86s2.67,13.22,2.39,15.4a2.56,2.56,0,0,1-1,1.67c-2.15,1.61-16.85-3.25-19.43-11.21S178.22,111.44,180.91,111.48Z" transform="translate(-52.72 -52.72)"/><path class="cls-76" d="M141.73,77.78a64,64,0,1,0,64,64A64,64,0,0,0,141.73,77.78Zm0,124.44a60.49,60.49,0,1,1,60.49-60.49A60.55,60.55,0,0,1,141.73,202.22Z" transform="translate(-52.72 -52.72)"/><path class="cls-77" d="M141.73,81.24a60.49,60.49,0,1,0,60.49,60.49A60.56,60.56,0,0,0,141.73,81.24Zm0,119.24a58.75,58.75,0,1,1,58.75-58.75A58.82,58.82,0,0,1,141.73,200.49Z" transform="translate(-52.72 -52.72)"/><path class="cls-78" d="M141.73,83a58.75,58.75,0,1,0,58.75,58.76A58.82,58.82,0,0,0,141.73,83Zm31.69,15.13c2.35,1.71-8.21,22.64-10.51,24-1.21.71-1.65-.26-5-2.67s-4.38-2.54-4.08-3.91C154.43,112.91,171.07,96.4,173.43,98.11Zm-14,42.2a4.12,4.12,0,1,1,2.65-5.2A4.13,4.13,0,0,1,159.45,140.31ZM120.59,89.17c3.67-2.22,10.11-4.27,21.14-4.27s17.47,2.06,21.14,4.27a1.88,1.88,0,0,1,.92,2.29c-4.43,9.7-14.21,22.15-22.06,22.15s-17.63-12.45-22.06-22.15A1.89,1.89,0,0,1,120.59,89.17Zm25.26,35.28a4.12,4.12,0,1,1-4.12-4.12A4.12,4.12,0,0,1,145.86,124.45ZM110,98.11c2.35-1.71,19,14.8,19.57,17.41.3,1.37-.76,1.49-4.08,3.91s-3.77,3.38-5,2.67C118.24,120.75,107.69,99.82,110,98.11Zm19.18,39.55a4.12,4.12,0,1,1-2.65-5.2A4.13,4.13,0,0,1,129.22,137.66Zm-44,7.93c-1-4.17-.94-10.93,2.47-21.42s7.35-16,10.59-18.79a1.89,1.89,0,0,1,2.46-.16c7.86,7.21,16.68,20.36,14.25,27.82S97.7,146,87.11,147.17A1.89,1.89,0,0,1,85.21,145.59Zm5.24,12.8c-.9-2.76,19.95-13.49,22.6-13.23,1.39.14,1.19,1.18,2.46,5.09s2.05,4.63,1,5.56C114.52,157.59,91.35,161.16,90.45,158.39Zm39.58,37a1.89,1.89,0,0,1-2.09,1.32c-4.27-.36-10.69-2.49-19.61-9S95.4,175.78,93.73,171.83a1.88,1.88,0,0,1,.61-2.39c9.28-5.24,24.51-9.57,30.86-5S132.14,184.92,130,195.37Zm4.88-37.23a4.12,4.12,0,1,1-.91-5.76A4.12,4.12,0,0,1,134.91,158.14Zm6.83,37.51c-2.91,0-6.67-23.14-5.6-25.58.56-1.28,1.49-.76,5.6-.77s5-.52,5.6.77C148.4,172.51,144.64,195.65,141.73,195.65Zm6.82-37.51a4.12,4.12,0,1,1,5.76.91A4.12,4.12,0,0,1,148.55,158.14Zm41.18,13.69c-1.66,3.95-5.67,9.4-14.59,15.88s-15.34,8.61-19.61,9a1.89,1.89,0,0,1-2.09-1.32c-2.12-10.45-1.53-26.27,4.83-30.88s21.58-.29,30.86,5A1.88,1.88,0,0,1,189.73,171.83ZM193,158.39c-.9,2.76-24.07-.81-26.06-2.58-1-.93-.27-1.65,1-5.56s1.06-5,2.46-5.09C173.07,144.9,193.91,155.63,193,158.39Zm3.35-11.22c-10.59-1.21-25.45-6.66-27.88-14.13s6.39-20.61,14.25-27.82a1.88,1.88,0,0,1,2.46.16c3.24,2.8,7.19,8.3,10.59,18.79s3.44,17.25,2.47,21.42A1.89,1.89,0,0,1,196.36,147.17Z" transform="translate(-52.72 -52.72)"/><path class="cls-75" d="M137.61,124.45a4.12,4.12,0,1,0,4.12-4.12A4.12,4.12,0,0,0,137.61,124.45Zm6.54,0a2.42,2.42,0,1,1-2.42-2.42A2.42,2.42,0,0,1,144.15,124.45Z" transform="translate(-52.72 -52.72)"/><path class="cls-75" d="M126.57,132.47a4.12,4.12,0,1,0,2.65,5.2A4.12,4.12,0,0,0,126.57,132.47Zm1,4.67a2.42,2.42,0,1,1-1.55-3.05A2.42,2.42,0,0,1,127.6,137.14Z" transform="translate(-52.72 -52.72)"/><path class="cls-75" d="M134,152.38a4.12,4.12,0,1,0,.91,5.76A4.12,4.12,0,0,0,134,152.38Zm-.46,4.76a2.42,2.42,0,1,1-.54-3.38A2.42,2.42,0,0,1,133.53,157.14Z" transform="translate(-52.72 -52.72)"/><path class="cls-75" d="M155.23,153.29a4.12,4.12,0,1,0-.91,5.76A4.13,4.13,0,0,0,155.23,153.29Zm-1.91,4.38a2.42,2.42,0,1,1,.54-3.38A2.42,2.42,0,0,1,153.31,157.68Z" transform="translate(-52.72 -52.72)"/><path class="cls-79" d="M156.9,132.47a4.12,4.12,0,1,0,5.2,2.65A4.13,4.13,0,0,0,156.9,132.47Zm2,6.22a2.42,2.42,0,1,1,1.55-3.05A2.42,2.42,0,0,1,158.92,138.7Z" transform="translate(-52.72 -52.72)"/><circle class="cls-80" cx="89.01" cy="89.01" r="9.15"/><path class="cls-81" d="M109.54,77.59l-3.48-7.85,2.54-1.13a10,10,0,0,1,1.94-.72,2.25,2.25,0,0,1,1.47.27,2.67,2.67,0,0,1,1.13,1.33,2.81,2.81,0,0,1,.28,1.33,2.35,2.35,0,0,1-.32,1.07,2.52,2.52,0,0,1-.66.74,10,10,0,0,1-1.6.84l-1,.46,1.31,3Zm-1.3-7.23,1,2.23.87-.38a4.47,4.47,0,0,0,1.2-.68,1.13,1.13,0,0,0,.33-.6,1.16,1.16,0,0,0-.09-.69,1.12,1.12,0,0,0-.56-.6,1.21,1.21,0,0,0-.79-.07A8.32,8.32,0,0,0,109,70Z" transform="translate(-52.72 -52.72)"/><path class="cls-81" d="M121.18,71.45l.48,1.45-5.48,1.8a4,4,0,0,1,0-1.74,10.91,10.91,0,0,1,1.11-2.54,11.51,11.51,0,0,0,.86-1.76,1.8,1.8,0,0,0,0-1.06,1.14,1.14,0,0,0-.55-.71,1.26,1.26,0,0,0-1.55.53,1.59,1.59,0,0,0,0,1.09l-1.61.36a2.68,2.68,0,0,1,.26-2.14,3.09,3.09,0,0,1,1.65-1.17,2.8,2.8,0,0,1,2.11,0A2.25,2.25,0,0,1,119.71,67a3,3,0,0,1,.15,1.11,4.49,4.49,0,0,1-.28,1.25,10.44,10.44,0,0,1-.68,1.38q-.52.92-.64,1.21a2.82,2.82,0,0,0-.18.54Z" transform="translate(-52.72 -52.72)"/><path class="cls-81" d="M123.24,63.63a2.35,2.35,0,0,1,2.11.4,5.7,5.7,0,0,1,1.65,3.2,5.7,5.7,0,0,1,0,3.6,2.34,2.34,0,0,1-1.68,1.32,2.46,2.46,0,0,1-2.19-.46,5.7,5.7,0,0,1-1.56-3.16,5.68,5.68,0,0,1,0-3.59A2.34,2.34,0,0,1,123.24,63.63Zm.32,1.33a.83.83,0,0,0-.47.31,1.29,1.29,0,0,0-.19.75,9.39,9.39,0,0,0,.35,2.13,9.33,9.33,0,0,0,.64,2,1.47,1.47,0,0,0,.55.64.85.85,0,0,0,1-.26,1.27,1.27,0,0,0,.19-.75,13.91,13.91,0,0,0-1-4.1,1.48,1.48,0,0,0-.55-.64A.81.81,0,0,0,123.56,65Z" transform="translate(-52.72 -52.72)"/><path class="cls-81" d="M128.6,69l1.6-.4a1.41,1.41,0,0,0,.54.81,1.13,1.13,0,0,0,.83.21,1.11,1.11,0,0,0,.81-.54,1.91,1.91,0,0,0,.18-1.3,1.73,1.73,0,0,0-.52-1.13,1.19,1.19,0,0,0-1-.26,1.68,1.68,0,0,0-1.17.8h-1.35l.21-4.54,4.31-.61.22,1.53-3.08.44-.05,1.48a2.52,2.52,0,0,1,3,.1,2.87,2.87,0,0,1,1,1.94,3.1,3.1,0,0,1-.34,2A2.73,2.73,0,0,1,131.74,71a2.89,2.89,0,0,1-2-.36A2.63,2.63,0,0,1,128.6,69Z" transform="translate(-52.72 -52.72)"/><path class="cls-81" d="M134.87,70.56l1.47-9,1.23-.09-1.49,9Z" transform="translate(-52.72 -52.72)"/><path class="cls-81" d="M138.58,67.9l1.64-.18a1.4,1.4,0,0,0,.42.88,1.13,1.13,0,0,0,.8.32,1.11,1.11,0,0,0,.87-.42,1.91,1.91,0,0,0,.35-1.27,1.73,1.73,0,0,0-.36-1.18,1.18,1.18,0,0,0-.93-.39,1.68,1.68,0,0,0-1.27.63l-1.34-.19.82-4.48,4.35,0v1.54l-3.11,0-.25,1.46a2.52,2.52,0,0,1,3,.5,2.86,2.86,0,0,1,.77,2.06,3.1,3.1,0,0,1-.6,1.9,2.72,2.72,0,0,1-2.32,1.15,2.89,2.89,0,0,1-1.94-.63A2.64,2.64,0,0,1,138.58,67.9Z" transform="translate(-52.72 -52.72)"/><path class="cls-81" d="M145.29,67.91l1.65,0a1.41,1.41,0,0,0,.34.91,1.13,1.13,0,0,0,.77.39,1.11,1.11,0,0,0,.91-.34,1.9,1.9,0,0,0,.46-1.23,1.73,1.73,0,0,0-.25-1.21,1.18,1.18,0,0,0-.89-.47,1.68,1.68,0,0,0-1.32.52l-1.31-.31,1.22-4.38,4.34.37-.13,1.54L148,63.4l-.38,1.43a2.52,2.52,0,0,1,2.93.77,2.87,2.87,0,0,1,.58,2.13,3.1,3.1,0,0,1-.77,1.83,2.73,2.73,0,0,1-2.41.94,2.89,2.89,0,0,1-1.88-.8A2.63,2.63,0,0,1,145.29,67.91Z" transform="translate(-52.72 -52.72)"/><path class="cls-81" d="M151.89,70.72l1.61-8.44,3.59.68a6.25,6.25,0,0,1,1.92.6,2,2,0,0,1,.83,1,2.46,2.46,0,0,1,.11,1.4,2.29,2.29,0,0,1-.86,1.46,2.74,2.74,0,0,1-1.82.46,4,4,0,0,1,.78.88,9.82,9.82,0,0,1,.71,1.55l.72,1.84-2-.39-.88-2.07a12.1,12.1,0,0,0-.66-1.41,1.34,1.34,0,0,0-.45-.45,2.86,2.86,0,0,0-.84-.26l-.35-.07L153.59,71Zm2.63-4.54,1.26.24a6.61,6.61,0,0,0,1.55.19.94.94,0,0,0,.55-.27,1.12,1.12,0,0,0,.29-.6,1,1,0,0,0-.1-.73,1.06,1.06,0,0,0-.58-.45q-.2-.07-1.24-.27L154.93,64Z" transform="translate(-52.72 -52.72)"/><path class="cls-81" d="M163.84,73.54l-1.58-.47,1.79-5.94a5.68,5.68,0,0,1-2.4.58l.43-1.43a4.77,4.77,0,0,0,1.57-.36,3,3,0,0,0,1.39-1l1.28.38Z" transform="translate(-52.72 -52.72)"/><path class="cls-81" d="M173.6,70.29l-1.54-.43a1.16,1.16,0,0,0,0-.79.89.89,0,0,0-.5-.46,1.08,1.08,0,0,0-1,.11,4,4,0,0,0-1.15,1.64,1.93,1.93,0,0,1,1.69-.1,2.34,2.34,0,0,1,1.35,1.39,2.84,2.84,0,0,1-.07,2.16,2.9,2.9,0,0,1-1.5,1.67,2.82,2.82,0,0,1-3.75-1.73,5.2,5.2,0,0,1,.46-3.39,5.3,5.3,0,0,1,2.08-2.83,2.82,2.82,0,0,1,2.49-.12,2.41,2.41,0,0,1,1.3,1.11A2.57,2.57,0,0,1,173.6,70.29Zm-4.8,1.94a1.87,1.87,0,0,0-.12,1.29,1.08,1.08,0,0,0,.62.72,1,1,0,0,0,.84,0,1.8,1.8,0,0,0,.72-1A1.89,1.89,0,0,0,171,72a1.06,1.06,0,0,0-1.5-.62A1.61,1.61,0,0,0,168.8,72.23Z" transform="translate(-52.72 -52.72)"/></svg>